<svg data-logo="logo" xmlns="http://www.w3.org/2000/svg" viewBox="0 0 219 43">
  <g id="logogram" transform="translate(0, 1) rotate(0) "><path fill-rule="evenodd" clip-rule="evenodd" d="M20.1719 5.45685L22.8086 0.889954L30.285 5.20648L27.6483 9.77338C27.186 10.5742 27.8792 11.5476 28.7872 11.3725L33.8389 10.3984L35.4735 18.8753L30.4218 19.8494C22.2497 21.4253 16.0106 12.6645 20.1719 5.45685Z" fill="#3A724F"/><path fill-rule="evenodd" clip-rule="evenodd" d="M15.6034 36.3231L12.9667 40.89L5.49021 36.5735L8.12691 32.0066C8.58928 31.2057 7.89604 30.2323 6.98803 30.4074L1.93636 31.3815L0.301758 22.9046L5.35343 21.9305C13.5255 20.3547 19.7647 29.1155 15.6034 36.3231Z" fill="#DC8E43"/><path fill-rule="evenodd" clip-rule="evenodd" d="M15.8321 5.45685L13.1954 0.889954L5.71891 5.20648L8.35561 9.77338C8.81797 10.5742 8.12474 11.5476 7.21673 11.3725L2.16505 10.3984L0.530457 18.8753L5.58213 19.8494C13.7542 21.4253 19.9934 12.6645 15.8321 5.45685Z" fill="#14424C"/><path fill-rule="evenodd" clip-rule="evenodd" d="M19.9514 36.3231L22.5881 40.89L30.0645 36.5735L27.4278 32.0066C26.9654 31.2057 27.6587 30.2323 28.5667 30.4074L33.6184 31.3815L35.253 22.9046L30.2013 21.9305C22.0292 20.3547 15.79 29.1155 19.9514 36.3231Z" fill="#C85D1B"/></g>
  <g id="logotype" transform="translate(42, 1)"><path fill="#111111" d="M19.48 34.34L19.48 34.34Q16.12 34.34 13.43 32.80Q10.73 31.27 9.17 28.34Q7.61 25.42 7.61 21.29L7.61 21.29Q7.61 17.13 9.17 14.20Q10.73 11.27 13.43 9.73Q16.12 8.19 19.48 8.19L19.48 8.19Q22.87 8.19 25.55 9.73Q28.23 11.27 29.80 14.20Q31.36 17.13 31.36 21.29L31.36 21.29Q31.36 25.42 29.80 28.34Q28.23 31.27 25.55 32.80Q22.87 34.34 19.48 34.34ZM19.48 29.71L19.48 29.71Q21.47 29.71 22.94 28.74Q24.42 27.78 25.24 25.89Q26.06 24.00 26.06 21.29L26.06 21.29Q26.06 18.53 25.24 16.65Q24.42 14.76 22.94 13.79Q21.47 12.83 19.48 12.83L19.48 12.83Q17.52 12.83 16.03 13.80Q14.54 14.77 13.72 16.66Q12.90 18.55 12.90 21.29L12.90 21.29Q12.90 24.00 13.72 25.88Q14.54 27.76 16.03 28.74Q17.52 29.71 19.48 29.71ZM38.01 41.14L32.88 41.14L32.88 14.89L37.92 14.89L37.92 18.11L38.16 18.11Q38.52 17.35 39.18 16.55Q39.84 15.75 40.91 15.20Q41.99 14.65 43.61 14.65L43.61 14.65Q45.73 14.65 47.49 15.75Q49.25 16.84 50.30 19.03Q51.35 21.22 51.35 24.48L51.35 24.48Q51.35 27.66 50.33 29.86Q49.30 32.05 47.54 33.19Q45.78 34.32 43.58 34.32L43.58 34.32Q42.02 34.32 40.95 33.79Q39.87 33.27 39.19 32.49Q38.52 31.71 38.16 30.94L38.16 30.94L38.01 30.94L38.01 41.14ZM42.01 30.21L42.01 30.21Q43.34 30.21 44.25 29.47Q45.17 28.74 45.64 27.44Q46.11 26.14 46.11 24.46L46.11 24.46Q46.11 22.79 45.64 21.51Q45.17 20.23 44.26 19.49Q43.36 18.76 42.01 18.76L42.01 18.76Q40.69 18.76 39.77 19.47Q38.84 20.17 38.37 21.45Q37.89 22.72 37.89 24.46L37.89 24.46Q37.89 26.19 38.37 27.48Q38.86 28.77 39.78 29.49Q40.71 30.21 42.01 30.21ZM61.30 34.38L61.30 34.38Q58.38 34.38 56.26 33.18Q54.14 31.98 53.00 29.78Q51.87 27.57 51.87 24.55L51.87 24.55Q51.87 21.59 52.99 19.37Q54.12 17.15 56.19 15.90Q58.26 14.65 61.04 14.65L61.04 14.65Q62.92 14.65 64.55 15.25Q66.17 15.85 67.40 17.06Q68.63 18.26 69.32 20.07Q70.01 21.88 70.01 24.34L70.01 24.34L70.01 25.78L53.97 25.78L53.97 22.57L67.50 22.57L65.11 23.42Q65.11 21.93 64.66 20.83Q64.20 19.73 63.31 19.12Q62.41 18.52 61.08 18.52L61.08 18.52Q59.76 18.52 58.83 19.13Q57.90 19.75 57.42 20.80Q56.94 21.85 56.94 23.20L56.94 23.20L56.94 25.47Q56.94 27.13 57.50 28.26Q58.05 29.39 59.05 29.95Q60.05 30.51 61.38 30.51L61.38 30.51Q62.29 30.51 63.02 30.26Q63.76 30.00 64.28 29.50Q64.80 28.99 65.08 28.26L65.08 28.26L69.72 29.13Q69.26 30.70 68.12 31.89Q66.97 33.08 65.25 33.73Q63.54 34.38 61.30 34.38ZM76.37 22.94L76.37 22.94L76.37 34L71.24 34L71.24 14.89L76.08 14.89L76.16 19.66L75.86 19.66Q76.61 17.27 78.14 15.96Q79.67 14.65 82.09 14.65L82.09 14.65Q84.08 14.65 85.55 15.52Q87.02 16.38 87.84 18.00Q88.66 19.61 88.66 21.85L88.66 21.85L88.66 34L83.53 34L83.53 22.74Q83.53 20.96 82.62 19.95Q81.70 18.94 80.08 18.94L80.08 18.94Q79.00 18.94 78.16 19.41Q77.31 19.88 76.84 20.77Q76.37 21.66 76.37 22.94ZM102.00 34.34L102.00 34.34Q98.62 34.34 95.94 32.80Q93.27 31.27 91.72 28.34Q90.18 25.42 90.18 21.29L90.18 21.29Q90.18 17.13 91.73 14.20Q93.29 11.27 95.97 9.73Q98.65 8.19 102.00 8.19L102.00 8.19Q104.17 8.19 106.04 8.80Q107.92 9.41 109.37 10.57Q110.82 11.73 111.74 13.42Q112.67 15.10 112.96 17.23L112.96 17.23L107.68 17.23Q107.51 16.19 107.02 15.38Q106.53 14.57 105.81 14.00Q105.08 13.42 104.14 13.12Q103.20 12.83 102.11 12.83L102.11 12.83Q100.12 12.83 98.62 13.82Q97.11 14.81 96.29 16.70Q95.47 18.58 95.47 21.29L95.47 21.29Q95.47 24.04 96.31 25.92Q97.15 27.80 98.64 28.75Q100.12 29.71 102.09 29.71L102.09 29.71Q103.18 29.71 104.11 29.41Q105.04 29.11 105.79 28.54Q106.53 27.97 107.02 27.15Q107.51 26.33 107.69 25.30L107.69 25.30L112.97 25.30Q112.77 27.06 111.92 28.69Q111.08 30.31 109.68 31.59Q108.27 32.87 106.34 33.61Q104.41 34.34 102.00 34.34ZM119.50 34L114.37 34L114.37 14.89L119.50 14.89L119.50 34ZM116.94 12.40L116.94 12.40Q115.77 12.40 114.95 11.63Q114.13 10.86 114.13 9.77L114.13 9.77Q114.13 8.67 114.95 7.90Q115.77 7.13 116.94 7.13L116.94 7.13Q118.10 7.13 118.93 7.90Q119.76 8.66 119.76 9.77L119.76 9.77Q119.76 10.86 118.93 11.63Q118.10 12.40 116.94 12.40ZM126.71 34L121.58 34L121.58 14.89L126.54 14.89L126.54 18.23L126.74 18.23Q127.27 16.45 128.51 15.54Q129.75 14.64 131.36 14.64L131.36 14.64Q131.75 14.64 132.20 14.68Q132.66 14.72 133.02 14.81L133.02 14.81L133.02 19.39Q132.67 19.27 132.03 19.20Q131.38 19.13 130.79 19.13L130.79 19.13Q129.63 19.13 128.69 19.64Q127.75 20.14 127.23 21.04Q126.71 21.93 126.71 23.13L126.71 23.13L126.71 34ZM142.11 34.38L142.11 34.38Q139.22 34.38 137.12 33.14Q135.03 31.90 133.89 29.68Q132.76 27.47 132.76 24.53L132.76 24.53Q132.76 21.56 133.89 19.35Q135.03 17.13 137.12 15.89Q139.22 14.65 142.11 14.65L142.11 14.65Q143.80 14.65 145.23 15.10Q146.67 15.54 147.78 16.36Q148.89 17.18 149.61 18.36Q150.33 19.54 150.60 21.01L150.60 21.01L145.83 21.90Q145.68 21.15 145.35 20.56Q145.03 19.97 144.57 19.55Q144.11 19.13 143.50 18.91Q142.89 18.69 142.16 18.69L142.16 18.69Q140.79 18.69 139.86 19.42Q138.93 20.16 138.46 21.47Q137.99 22.79 137.99 24.52L137.99 24.52Q137.99 26.22 138.46 27.53Q138.93 28.84 139.86 29.59Q140.79 30.34 142.16 30.34L142.16 30.34Q142.89 30.34 143.51 30.11Q144.12 29.88 144.60 29.45Q145.08 29.01 145.40 28.39Q145.73 27.78 145.87 27.01L145.87 27.01L150.63 27.88Q150.36 29.40 149.64 30.59Q148.93 31.78 147.81 32.63Q146.70 33.49 145.26 33.93Q143.82 34.38 142.11 34.38ZM151.88 8.54L157.01 8.54L157.01 34L151.88 34L151.88 8.54ZM167.72 34.38L167.72 34.38Q164.80 34.38 162.68 33.18Q160.56 31.98 159.42 29.78Q158.29 27.57 158.29 24.55L158.29 24.55Q158.29 21.59 159.41 19.37Q160.54 17.15 162.61 15.90Q164.68 14.65 167.46 14.65L167.46 14.65Q169.34 14.65 170.97 15.25Q172.59 15.85 173.82 17.06Q175.05 18.26 175.74 20.07Q176.44 21.88 176.44 24.34L176.44 24.34L176.44 25.78L160.39 25.78L160.39 22.57L173.92 22.57L171.53 23.42Q171.53 21.93 171.08 20.83Q170.63 19.73 169.73 19.12Q168.83 18.52 167.50 18.52L167.50 18.52Q166.18 18.52 165.25 19.13Q164.32 19.75 163.84 20.80Q163.36 21.85 163.36 23.20L163.36 23.20L163.36 25.47Q163.36 27.13 163.92 28.26Q164.47 29.39 165.47 29.95Q166.47 30.51 167.81 30.51L167.81 30.51Q168.71 30.51 169.45 30.26Q170.18 30.00 170.70 29.50Q171.22 28.99 171.50 28.26L171.50 28.26L176.15 29.13Q175.68 30.70 174.54 31.89Q173.39 33.08 171.68 33.73Q169.96 34.38 167.72 34.38Z"/></g>
</svg>
